<mxfile host="Electron" modified="2023-12-20T13:59:35.405Z" agent="Mozilla/5.0 (Windows NT 10.0; Win64; x64) AppleWebKit/537.36 (KHTML, like Gecko) draw.io/22.1.11 Chrome/114.0.5735.289 Electron/25.9.8 Safari/537.36" etag="RhctsIE_qCcZYylxz2qs" version="22.1.11" type="device">
  <diagram name="Page-1" id="UhPslssxLkJ7Oux8vyJi">
    <mxGraphModel dx="1102" dy="712" grid="1" gridSize="10" guides="1" tooltips="1" connect="1" arrows="1" fold="1" page="1" pageScale="1" pageWidth="850" pageHeight="1100" math="0" shadow="0">
      <root>
        <mxCell id="0" />
        <mxCell id="1" parent="0" />
        <mxCell id="nlmfZwtLmCZ6vigMSU_i-14" value="«device»&lt;br&gt;Client Computer A" style="verticalAlign=top;align=left;shape=cube;size=10;direction=south;fontStyle=0;html=1;boundedLbl=1;spacingLeft=5;whiteSpace=wrap;" vertex="1" parent="1">
          <mxGeometry x="40" y="260" width="210" height="160" as="geometry" />
        </mxCell>
        <mxCell id="nlmfZwtLmCZ6vigMSU_i-15" value="&amp;lt;&amp;lt;web browser&amp;gt;&amp;gt;" style="verticalAlign=top;align=center;shape=cube;size=10;direction=south;html=1;boundedLbl=1;spacingLeft=5;whiteSpace=wrap;" vertex="1" parent="nlmfZwtLmCZ6vigMSU_i-14">
          <mxGeometry width="150" height="80" relative="1" as="geometry">
            <mxPoint x="10" y="50" as="offset" />
          </mxGeometry>
        </mxCell>
        <mxCell id="nlmfZwtLmCZ6vigMSU_i-22" value="" style="group" vertex="1" connectable="0" parent="1">
          <mxGeometry x="400" y="410" width="237" height="207.5" as="geometry" />
        </mxCell>
        <mxCell id="nlmfZwtLmCZ6vigMSU_i-17" value="«device»&lt;br&gt;Azure App Service" style="verticalAlign=top;align=left;shape=cube;size=10;direction=south;fontStyle=0;html=1;boundedLbl=1;spacingLeft=5;whiteSpace=wrap;" vertex="1" parent="nlmfZwtLmCZ6vigMSU_i-22">
          <mxGeometry width="237" height="207.5" as="geometry" />
        </mxCell>
        <mxCell id="nlmfZwtLmCZ6vigMSU_i-20" value="«web server»&lt;br&gt;&lt;b&gt;Chirp Application Server&lt;/b&gt;" style="html=1;dropTarget=0;whiteSpace=wrap;" vertex="1" parent="nlmfZwtLmCZ6vigMSU_i-22">
          <mxGeometry x="28.5" y="77.5" width="180" height="90" as="geometry" />
        </mxCell>
        <mxCell id="nlmfZwtLmCZ6vigMSU_i-21" value="" style="shape=module;jettyWidth=8;jettyHeight=4;" vertex="1" parent="nlmfZwtLmCZ6vigMSU_i-20">
          <mxGeometry x="1" width="20" height="20" relative="1" as="geometry">
            <mxPoint x="-27" y="7" as="offset" />
          </mxGeometry>
        </mxCell>
        <mxCell id="nlmfZwtLmCZ6vigMSU_i-28" value="" style="group" vertex="1" connectable="0" parent="1">
          <mxGeometry x="410" y="160" width="180" height="160" as="geometry" />
        </mxCell>
        <mxCell id="nlmfZwtLmCZ6vigMSU_i-23" value="«device»&lt;br&gt;Azure AD B2C" style="verticalAlign=top;align=left;shape=cube;size=10;direction=south;fontStyle=0;html=1;boundedLbl=1;spacingLeft=5;whiteSpace=wrap;" vertex="1" parent="nlmfZwtLmCZ6vigMSU_i-28">
          <mxGeometry width="180" height="160" as="geometry" />
        </mxCell>
        <mxCell id="nlmfZwtLmCZ6vigMSU_i-25" value="Identity Management System" style="html=1;dropTarget=0;whiteSpace=wrap;" vertex="1" parent="nlmfZwtLmCZ6vigMSU_i-28">
          <mxGeometry x="10" y="60" width="130" height="90" as="geometry" />
        </mxCell>
        <mxCell id="nlmfZwtLmCZ6vigMSU_i-26" value="" style="shape=module;jettyWidth=8;jettyHeight=4;" vertex="1" parent="nlmfZwtLmCZ6vigMSU_i-25">
          <mxGeometry x="1" width="20" height="20" relative="1" as="geometry">
            <mxPoint x="-27" y="7" as="offset" />
          </mxGeometry>
        </mxCell>
        <mxCell id="nlmfZwtLmCZ6vigMSU_i-34" value="" style="group" vertex="1" connectable="0" parent="1">
          <mxGeometry x="410" y="750" width="240" height="250" as="geometry" />
        </mxCell>
        <mxCell id="nlmfZwtLmCZ6vigMSU_i-29" value="«device»&lt;br&gt;Azure SQL Server&lt;br&gt;" style="verticalAlign=top;align=left;shape=cube;size=10;direction=south;fontStyle=0;html=1;boundedLbl=1;spacingLeft=5;whiteSpace=wrap;container=0;" vertex="1" parent="nlmfZwtLmCZ6vigMSU_i-34">
          <mxGeometry width="240" height="170" as="geometry" />
        </mxCell>
        <mxCell id="nlmfZwtLmCZ6vigMSU_i-32" value="&amp;lt;&amp;lt;artifact&amp;gt;&amp;gt;&lt;br&gt;&lt;br&gt;&lt;b&gt;Chirp SQL Database&lt;/b&gt;" style="html=1;align=center;verticalAlign=middle;dashed=0;whiteSpace=wrap;container=0;" vertex="1" parent="nlmfZwtLmCZ6vigMSU_i-34">
          <mxGeometry x="18.5" y="70" width="180" height="60" as="geometry" />
        </mxCell>
        <mxCell id="nlmfZwtLmCZ6vigMSU_i-37" value="«device»&lt;br&gt;Client Computer B" style="verticalAlign=top;align=left;shape=cube;size=10;direction=south;fontStyle=0;html=1;boundedLbl=1;spacingLeft=5;whiteSpace=wrap;" vertex="1" parent="1">
          <mxGeometry x="40" y="460" width="210" height="160" as="geometry" />
        </mxCell>
        <mxCell id="nlmfZwtLmCZ6vigMSU_i-38" value="&amp;lt;&amp;lt;web browser&amp;gt;&amp;gt;" style="verticalAlign=top;align=center;shape=cube;size=10;direction=south;html=1;boundedLbl=1;spacingLeft=5;whiteSpace=wrap;" vertex="1" parent="nlmfZwtLmCZ6vigMSU_i-37">
          <mxGeometry width="150" height="80" relative="1" as="geometry">
            <mxPoint x="10" y="50" as="offset" />
          </mxGeometry>
        </mxCell>
        <mxCell id="nlmfZwtLmCZ6vigMSU_i-39" value="«device»&lt;br&gt;Client Computer C" style="verticalAlign=top;align=left;shape=cube;size=10;direction=south;fontStyle=0;html=1;boundedLbl=1;spacingLeft=5;whiteSpace=wrap;" vertex="1" parent="1">
          <mxGeometry x="41" y="650" width="210" height="160" as="geometry" />
        </mxCell>
        <mxCell id="nlmfZwtLmCZ6vigMSU_i-40" value="&amp;lt;&amp;lt;web browser&amp;gt;&amp;gt;" style="verticalAlign=top;align=center;shape=cube;size=10;direction=south;html=1;boundedLbl=1;spacingLeft=5;whiteSpace=wrap;" vertex="1" parent="nlmfZwtLmCZ6vigMSU_i-39">
          <mxGeometry width="150" height="80" relative="1" as="geometry">
            <mxPoint x="10" y="50" as="offset" />
          </mxGeometry>
        </mxCell>
        <mxCell id="nlmfZwtLmCZ6vigMSU_i-41" value="Use" style="endArrow=open;endSize=12;dashed=1;html=1;rounded=0;exitX=0.403;exitY=-0.038;exitDx=0;exitDy=0;exitPerimeter=0;entryX=0.011;entryY=0.155;entryDx=0;entryDy=0;entryPerimeter=0;" edge="1" parent="1" source="nlmfZwtLmCZ6vigMSU_i-14" target="nlmfZwtLmCZ6vigMSU_i-20">
          <mxGeometry width="160" relative="1" as="geometry">
            <mxPoint x="240" y="170" as="sourcePoint" />
            <mxPoint x="400" y="170" as="targetPoint" />
          </mxGeometry>
        </mxCell>
        <mxCell id="nlmfZwtLmCZ6vigMSU_i-43" value="Use" style="endArrow=open;endSize=12;dashed=1;html=1;rounded=0;exitX=0.085;exitY=0.011;exitDx=0;exitDy=0;exitPerimeter=0;" edge="1" parent="1" source="nlmfZwtLmCZ6vigMSU_i-39" target="nlmfZwtLmCZ6vigMSU_i-20">
          <mxGeometry width="160" relative="1" as="geometry">
            <mxPoint x="300" y="660" as="sourcePoint" />
            <mxPoint x="460" y="660" as="targetPoint" />
          </mxGeometry>
        </mxCell>
        <mxCell id="nlmfZwtLmCZ6vigMSU_i-45" value="Use" style="endArrow=open;endSize=12;dashed=1;html=1;rounded=0;" edge="1" parent="1" source="nlmfZwtLmCZ6vigMSU_i-37" target="nlmfZwtLmCZ6vigMSU_i-20">
          <mxGeometry width="160" relative="1" as="geometry">
            <mxPoint x="310" y="690" as="sourcePoint" />
            <mxPoint x="470" y="690" as="targetPoint" />
          </mxGeometry>
        </mxCell>
        <mxCell id="nlmfZwtLmCZ6vigMSU_i-46" value="HTTP Calls" style="edgeLabel;html=1;align=center;verticalAlign=middle;resizable=0;points=[];" vertex="1" connectable="0" parent="nlmfZwtLmCZ6vigMSU_i-45">
          <mxGeometry x="0.4133" y="2" relative="1" as="geometry">
            <mxPoint x="-41" y="-23" as="offset" />
          </mxGeometry>
        </mxCell>
        <mxCell id="nlmfZwtLmCZ6vigMSU_i-48" value="Use" style="endArrow=open;endSize=12;dashed=1;html=1;rounded=0;exitX=0.359;exitY=0.056;exitDx=0;exitDy=0;exitPerimeter=0;" edge="1" parent="1" source="nlmfZwtLmCZ6vigMSU_i-20" target="nlmfZwtLmCZ6vigMSU_i-25">
          <mxGeometry width="160" relative="1" as="geometry">
            <mxPoint x="310" y="325" as="sourcePoint" />
            <mxPoint x="470" y="325" as="targetPoint" />
          </mxGeometry>
        </mxCell>
        <mxCell id="nlmfZwtLmCZ6vigMSU_i-49" value="HTTP Calls" style="edgeLabel;html=1;align=center;verticalAlign=middle;resizable=0;points=[];" vertex="1" connectable="0" parent="nlmfZwtLmCZ6vigMSU_i-48">
          <mxGeometry x="0.4133" y="2" relative="1" as="geometry">
            <mxPoint x="48" y="16" as="offset" />
          </mxGeometry>
        </mxCell>
        <mxCell id="nlmfZwtLmCZ6vigMSU_i-50" value="Use" style="endArrow=open;endSize=12;dashed=1;html=1;rounded=0;" edge="1" parent="1" source="nlmfZwtLmCZ6vigMSU_i-20" target="nlmfZwtLmCZ6vigMSU_i-32">
          <mxGeometry width="160" relative="1" as="geometry">
            <mxPoint x="443" y="724" as="sourcePoint" />
            <mxPoint x="594" y="640" as="targetPoint" />
          </mxGeometry>
        </mxCell>
        <mxCell id="nlmfZwtLmCZ6vigMSU_i-51" value="TCP/IP" style="edgeLabel;html=1;align=center;verticalAlign=middle;resizable=0;points=[];" vertex="1" connectable="0" parent="nlmfZwtLmCZ6vigMSU_i-50">
          <mxGeometry x="0.4133" y="2" relative="1" as="geometry">
            <mxPoint x="-48" y="-31" as="offset" />
          </mxGeometry>
        </mxCell>
      </root>
    </mxGraphModel>
  </diagram>
</mxfile>
